<?xml version="1.0" encoding="UTF-8"?>
<svg xmlns="http://www.w3.org/2000/svg" onmouseup="{ if(window.parent.document.onmouseup) window.parent.document.onmouseup(arguments[0]);}" width="36" viewBox="0 0 36 36" id="S_Export_18_N_2x" height="36" data-name="S_Export_18_N@2x"><defs><style>
      .fill {
        fill: #6e6e6e;
      }

      
    </style></defs><path data-cppathid="10000" d="M25,26H23a1,1,0,0,0-1,1v3H6V6H22V9a1,1,0,0,0,1,1h2a1,1,0,0,0,1-1V3a1,1,0,0,0-1-1H3A1,1,0,0,0,2,3V33a1,1,0,0,0,1,1H25a1,1,0,0,0,1-1V27A1,1,0,0,0,25,26Z" class="fill"/><path data-cppathid="10001" d="M35.856,17.649,29.332,10.2a.787.787,0,0,0-.527-.2.8.8,0,0,0-.8.8V16H17a1,1,0,0,0-1,1v2a1,1,0,0,0,1,1H28v5.2a.8.8,0,0,0,.8.8.787.787,0,0,0,.527-.2l6.524-7.445a.5.5,0,0,0,0-.7Z" class="fill"/></svg>